<svg
    xmlns="http://www.w3.org/2000/svg"
    width="134.36363220214844"
    height="119"
    fill="none"
    style=""
>
    <rect
        id="backgroundrect"
        width="100%"
        height="100%"
        x="0"
        y="0"
        fill="none"
        stroke="none"
        style=""
        class=""
    />

    <g class="currentLayer" style="">
        <title>Layer 1</title>
        <path
            fill="#032239"
            fill-opacity="1"
            stroke="none"
            stroke-opacity="1"
            stroke-width="1"
            stroke-dasharray="none"
            stroke-linejoin="miter"
            stroke-linecap="butt"
            stroke-dashoffset=""
            fill-rule="nonzero"
            opacity="1"
            marker-start=""
            marker-mid=""
            marker-end=""
            id="svg_17"
            d="M140.4481697732752,113.69056000492792 "
            style="color: rgb(0, 0, 0)"
            class=""
            transform="rotate(161.488525390625 140.44818115234372,113.69056701660156) "
        />
        <path
            fill="#032239"
            fill-opacity="1"
            stroke="none"
            stroke-opacity="1"
            stroke-width="1"
            stroke-dasharray="none"
            stroke-linejoin="miter"
            stroke-linecap="butt"
            stroke-dashoffset=""
            fill-rule="nonzero"
            opacity="1"
            marker-start=""
            marker-mid=""
            marker-end=""
            id="svg_23"
            d="M111.52613819729197,155.5862848216837 "
            style="color: rgb(0, 0, 0)"
            class=""
            transform="rotate(161.488525390625 111.52613067626952,155.58627319335938) "
        />
        <path
            fill="#032239"
            fill-opacity="1"
            stroke="none"
            stroke-opacity="1"
            stroke-width="1"
            stroke-dasharray="none"
            stroke-linejoin="miter"
            stroke-linecap="butt"
            stroke-dashoffset=""
            fill-rule="nonzero"
            opacity="1"
            marker-start=""
            marker-mid=""
            marker-end=""
            id="svg_10"
            d="M43.635409506884514,143.50820424339986 "
            style="color: rgb(0, 0, 0)"
            class=""
            transform="rotate(-37.27159881591797 43.63541030883789,143.50820922851562) "
        />
        <path
            fill="#032239"
            fill-opacity="1"
            stroke="none"
            stroke-opacity="1"
            stroke-width="1"
            stroke-dasharray="none"
            stroke-linejoin="miter"
            stroke-linecap="butt"
            stroke-dashoffset=""
            fill-rule="nonzero"
            opacity="1"
            marker-start=""
            marker-mid=""
            marker-end=""
            id="svg_11"
            d="M-2.9445949467746004,138.74375014955348 "
            style="color: rgb(0, 0, 0)"
            class=""
            transform="rotate(-37.27159881591797 -2.9445948600768856,138.74374389648438) "
        />
        <path
            fill="#032239"
            fill-opacity="1"
            stroke="none"
            stroke-opacity="1"
            stroke-width="1"
            stroke-dasharray="none"
            stroke-linejoin="miter"
            stroke-linecap="butt"
            stroke-dashoffset=""
            fill-rule="nonzero"
            opacity="1"
            marker-start=""
            marker-mid=""
            marker-end=""
            id="svg_12"
            d="M-2.7935356660322554,139.54271057519048 "
            style="color: rgb(0, 0, 0)"
            class=""
            transform="rotate(-37.27159881591797 -2.7935357093810826,139.54270935058594) "
        />
        <path
            fill="#032239"
            fill-opacity="1"
            stroke="none"
            stroke-opacity="1"
            stroke-width="1"
            stroke-dasharray="none"
            stroke-linejoin="miter"
            stroke-linecap="butt"
            stroke-dashoffset=""
            fill-rule="nonzero"
            opacity="1"
            marker-start=""
            marker-mid=""
            marker-end=""
            id="svg_20"
            d="M2.7172840725291962,137.17674325812948 "
            style="color: rgb(0, 0, 0)"
            class=""
            transform="rotate(-37.27159881591797 2.7172839641570357,137.1767425537109) "
        />
        <path
            fill="#032239"
            fill-opacity="1"
            stroke="none"
            stroke-opacity="1"
            stroke-width="1"
            stroke-dasharray="none"
            stroke-linejoin="miter"
            stroke-linecap="butt"
            stroke-dashoffset=""
            fill-rule="nonzero"
            opacity="1"
            marker-start=""
            marker-mid=""
            marker-end=""
            id="svg_21"
            d="M6.4354621605439775,138.45979882370344 "
            style="color: rgb(0, 0, 0)"
            class=""
            transform="rotate(-37.27159881591797 6.435462474823025,138.4597930908203) "
        />
        <g
            class=""
            transform="rotate(36.39533233642578 39.479579925537124,93.1512451171875) "
            id="svg_6"
        >
            <path
                d="M60.633829855079654,119.20235339775087 C60.633829855079654,118.49284339775085 56.82549985507964,118.99137339775086 56.14897985507966,118.48832339775086 L30.373229855079657,118.48832339775086 C30.78751985507965,118.99137339775086 25.161009855079655,119.58375339775085 24.433729855079648,119.20235339775087 C24.433729855079648,90.35985339775084 42.53492985507964,66.97845339775085 42.53492985507964,66.97845339775085 C42.53492985507964,66.97845339775085 60.633829855079654,90.35985339775084 60.633829855079654,119.20235339775087 z"
                fill="#032239"
                class=""
                id="svg_24"
                transform="rotate(-37.27159881591797 42.53377914428708,93.15125274658203) "
            />
            <path
                d="M49.41228435344698,111.17235902347565 C55.03498435344696,111.17235902347565 59.593084353446955,106.61305902347564 59.593084353446955,100.98895902347564 C59.593084353446955,95.36485902347565 55.03498435344696,90.80565902347564 49.41228435344698,90.80565902347564 C43.78958435344697,90.80565902347564 39.231484353446945,95.36485902347565 39.231484353446945,100.98895902347564 C39.231484353446945,106.61305902347564 43.78958435344697,111.17235902347565 49.41228435344698,111.17235902347565 z"
                fill="white"
                id="svg_7"
                class=""
                transform="rotate(-37.27159881591797 49.4122848510742,100.9890213012695) "
            />
            <path
                d="M49.41216837940215,108.5070337677002 C53.56316837940216,108.5070337677002 56.92826837940214,105.14113376770018 56.92826837940214,100.98903376770019 C56.92826837940214,96.8370337677002 53.56316837940216,93.47103376770019 49.41216837940215,93.47103376770019 C45.26106837940216,93.47103376770019 41.89606837940215,96.8370337677002 41.89606837940215,100.98903376770019 C41.89606837940215,105.14113376770018 45.26106837940216,108.5070337677002 49.41216837940215,108.5070337677002 z"
                fill="#E08C22"
                id="svg_8"
                class=""
                transform="rotate(-37.27159881591797 49.412166595458956,100.98903656005858) "
            />
            <path
                d="M45.832801356506366,92.73913302135469 H21.058701356506347 C26.36430135650636,78.82813302135469 33.44670135650637,69.67963302135468 33.44670135650637,69.67963302135468 C33.44670135650637,69.67963302135468 40.52920135650635,78.82813302135469 45.832801356506366,92.73913302135469 z"
                fill="#79132D"
                id="svg_9"
                class=""
                transform="rotate(-37.27159881591797 33.44575119018551,81.20938873291014) "
            />
            <path
                fill="#032239"
                fill-opacity="1"
                stroke="none"
                stroke-opacity="1"
                stroke-width="1"
                stroke-dasharray="none"
                stroke-linejoin="miter"
                stroke-linecap="butt"
                stroke-dashoffset=""
                fill-rule="nonzero"
                opacity="1"
                marker-start=""
                marker-mid=""
                marker-end=""
                id="svg_13"
                d="M35.00349857590413,97.63659132610667 "
                style="color: rgb(0, 0, 0)"
                class=""
                transform="rotate(-37.27159881591797 35.00350189208983,97.63660430908203) "
            />
            <path
                fill="#032239"
                fill-opacity="1"
                stroke="none"
                stroke-opacity="1"
                stroke-width="1"
                stroke-dasharray="none"
                stroke-linejoin="miter"
                stroke-linecap="butt"
                stroke-dashoffset=""
                fill-rule="nonzero"
                opacity="1"
                marker-start=""
                marker-mid=""
                marker-end=""
                id="svg_14"
                d="M21.70321386510676,88.56597911227834 "
                style="color: rgb(0, 0, 0)"
                class=""
                transform="rotate(-37.27159881591797 21.70321464538572,88.56598663330078) "
            />
            <path
                fill="#032239"
                fill-opacity="1"
                stroke="none"
                stroke-opacity="1"
                stroke-width="1"
                stroke-dasharray="none"
                stroke-linejoin="miter"
                stroke-linecap="butt"
                stroke-dashoffset=""
                fill-rule="nonzero"
                opacity="1"
                marker-start=""
                marker-mid=""
                marker-end=""
                id="svg_15"
                d="M23.71607381647283,85.20632946762174 "
                style="color: rgb(0, 0, 0)"
                class=""
                transform="rotate(-37.27159881591797 23.716075897216793,85.20633697509766) "
            />
            <path
                fill="#032239"
                fill-opacity="1"
                stroke="none"
                stroke-opacity="1"
                stroke-width="1"
                stroke-dasharray="none"
                stroke-linejoin="miter"
                stroke-linecap="butt"
                stroke-dashoffset=""
                fill-rule="nonzero"
                opacity="1"
                marker-start=""
                marker-mid=""
                marker-end=""
                id="svg_16"
                d="M25.69801790064031,87.8106798475439 "
                style="color: rgb(0, 0, 0)"
                class=""
                transform="rotate(-37.27159881591797 25.69802093505851,87.81069183349607) "
            />
            <path
                fill="#032239"
                fill-opacity="1"
                stroke="none"
                stroke-opacity="1"
                stroke-width="1"
                stroke-dasharray="none"
                stroke-linejoin="miter"
                stroke-linecap="butt"
                stroke-dashoffset=""
                fill-rule="nonzero"
                opacity="1"
                marker-start=""
                marker-mid=""
                marker-end=""
                id="svg_18"
                d="M35.13448801907629,85.19900233095342 "
                style="color: rgb(0, 0, 0)"
                class=""
                transform="rotate(-37.27159881591797 35.134487152099624,85.19901275634766) "
            />
            <path
                fill="#032239"
                fill-opacity="1"
                stroke="none"
                stroke-opacity="1"
                stroke-width="1"
                stroke-dasharray="none"
                stroke-linejoin="miter"
                stroke-linecap="butt"
                stroke-dashoffset=""
                fill-rule="nonzero"
                opacity="1"
                marker-start=""
                marker-mid=""
                marker-end=""
                id="svg_19"
                d="M35.285546822981416,85.99796275659043 "
                style="color: rgb(0, 0, 0)"
                class=""
                transform="rotate(-37.27159881591797 35.285549163818324,85.9979782104492) "
            />
            <path
                fill="#032239"
                fill-opacity="1"
                stroke="none"
                stroke-opacity="1"
                stroke-width="1"
                stroke-dasharray="none"
                stroke-linejoin="miter"
                stroke-linecap="butt"
                stroke-dashoffset=""
                fill-rule="nonzero"
                opacity="1"
                marker-start=""
                marker-mid=""
                marker-end=""
                id="svg_22"
                d="M6.171760949221493,103.58433074300942 "
                style="color: rgb(0, 0, 0)"
                class=""
                transform="rotate(-37.27159881591797 6.1717619895935005,103.58433532714844) "
            />
        </g>
        <g
            class=""
            id="svg_3"
            transform="rotate(3.7864084243774414 88.62640380859384,72.23209381103527) "
        >
            <path
                d="M111.14481221027374,88.0411056005478 C106.99481221027374,88.0411056005478 102.94881221027374,89.34060560054779 99.57461221027374,91.75740560054778 C96.20041221027374,94.17410560054779 93.66731221027374,97.58680560054779 92.33051221027375,101.51660560054779 C91.71591221027374,103.3262056005478 89.14581221027375,103.3421056005478 88.48791221027375,101.5475056005478 C85.15831221027375,92.45560560054778 83.33841221027375,76.2042056005478 106.99991221027375,75.2197056005478 C117.96361221027374,74.76380560054778 117.53631221027376,88.0411056005478 111.14481221027374,88.0411056005478 z"
                fill="#79132D"
                id="svg_1"
                class=""
                transform="rotate(174.48794555664062 101.09806823730469,89.04596710205078) "
            />
            <path
                d="M66.10796842288971,90.44821735705138 C70.2579684228897,90.44831735705137 74.3037684228897,91.74791735705138 77.67786842288972,94.16461735705137 C81.05196842288971,96.58131735705138 83.58516842288971,99.99401735705138 84.9214684228897,103.92371735705137 C85.53646842288971,105.73331735705136 88.1064684228897,105.74921735705138 88.7644684228897,103.95461735705138 C92.09346842288971,94.86271735705137 93.91446842288971,78.61131735705138 70.25226842288971,77.62681735705138 C59.289168422889716,77.17091735705137 59.716768422889714,90.44821735705138 66.10796842288971,90.44821735705138 z"
                fill="#79132D"
                id="svg_2"
                class=""
                transform="rotate(174.48794555664062 76.15443420410158,91.45307159423828) "
            />
            <path
                d="M94.99554413459214,65.13195416596285 C94.89480517588592,65.13295018091551 94.79421501918657,65.21661543693894 94.69481527854285,65.38095790412775 C94.54333483546613,59.96861265137545 94.27236638080714,54.95268134978167 93.90095657145584,50.693721412209214 C93.52969556411144,46.433765459684054 93.06736772851269,43.03536244120947 92.5471559122097,40.7415400052344 C92.02679529389981,38.44771756925934 91.46149646949047,37.315248568085366 90.89158478286566,37.42481021287793 C90.32167309624086,37.53437185767048 89.76128473806098,38.8849681334769 89.25044744819598,41.37699754503123 C89.1084903335641,37.16285828032845 88.84183713710672,33.46266273119801 88.48471232042279,30.75151003005856 C88.12763214434088,28.040357328919104 87.69643368859639,26.441753329900443 87.24647129977528,26.161873128203087 C86.79649403075351,25.880996911553083 86.34828750561448,26.93179268660896 85.95936370004496,29.177806404856383 C85.57042501427469,31.423820123103795 85.25853600770408,34.76345825937145 85.0637095400023,38.76743836906307 C84.9602177441674,34.535370835212404 84.71502179711246,30.770434314159086 84.36765839208454,28.078205897120178 C84.02029498705657,25.385977480081262 83.5910011970011,23.924823544529616 83.14898483535121,23.92980361929291 C83.1007283444968,23.92980361929291 83.05311170227228,23.945739858535468 83.00580754426232,23.980600381878556 C82.5980900452148,24.274424792913138 82.20974656747241,25.810279849914252 81.89456903654818,28.374022338060083 C81.57939150562386,30.93876084115857 81.35300413224763,34.404892876413996 81.24672973888272,38.29233923664444 C80.83131917607582,36.79433274784439 80.38662437830081,36.25050858369225 79.94663172394547,36.70369538715238 C79.50662418938947,37.15588617565983 79.08294023499599,38.59313575234765 78.70794429727715,40.904886457470596 C78.33293347935765,43.21663716259354 78.01653577197635,46.34113606908673 77.78287198046019,50.04133161821717 C77.54922306914469,53.74053115239495 77.40451311738421,57.91781786384932 77.35976835389381,62.25247493782395 C77.05085538746226,62.4855424367463 76.75383170138606,63.52538204732291 76.49923146749175,65.2644241546666 C76.24461635339676,67.0024702470576 76.04159089511197,69.37796590915076 75.91103201421262,72.14489544763916 C75.69544766654107,71.20366131737582 75.46273620786933,70.7036618111407 75.22694454765376,70.67278534760825 C74.99116181555858,70.64290489902847 74.75720339606868,71.08413952305666 74.53920101578416,71.9686008010184 C74.3212001235197,72.85405809393279 74.12368182751217,74.1658097865855 73.95857856069895,75.82317866781108 C73.79347380586569,77.48154356398932 73.6642114368529,79.45166114035003 73.57859879736128,81.61600163247935 H96.79173316050552 C96.7597407290109,77.13991043522708 96.55662598952192,72.94967552938812 96.22330949395018,69.89091360977046 C95.88984419637156,66.83115567520016 95.45117587987814,65.13095815101022 94.99554413459214,65.13195416596285 z"
                fill="#F0F3F6"
                id="svg_4"
                class=""
                transform="rotate(-5.980251789093018 85.18516540527328,52.77289581298822) "
            />
            <path
                d="M99.75970796146393,79.99279242420197 H77.78640796146392 V87.25679242420196 H99.75970796146393 V79.99279242420197 z"
                fill="#6B7481"
                id="svg_5"
                class=""
                transform="rotate(174.48794555664062 88.77305603027344,83.62481689453126) "
            />
            <path
                d="M107.90509944992067,87.89192400028229 C107.90509944992067,100.27332400028229 103.73312944992065,110.95367400028229 101.23842944992066,119.90517400028227 L76.91722944992065,119.90517400028227 C74.42242944992066,110.95367400028229 71.34136944992065,99.90969400028229 71.34136944992065,87.52829400028229 C77.88680944992063,88.50397400028228 88.71530944992065,88.39529400028229 88.71529944992065,87.66802400028229 C89.07893944992065,87.66803400028229 108.26873944992064,89.59488400028229 107.90509944992067,87.89192400028229 z"
                fill="#032239"
                class=""
                id="svg_25"
                transform="rotate(174.48794555664062 89.62578582763672,103.71675109863283) "
            />
        </g>
    </g>
</svg>
