<svg
    xmlns="http://www.w3.org/2000/svg"
    width="298.4545593261719"
    height="252.90908813476562"
    fill="none"
>
    <rect id="backgroundrect" width="100%" height="100%" x="0" y="0" fill="none" stroke="none" />

    <g class="currentLayer" style="">
        <title>Layer 1</title>
        <g
            class="selected"
            transform="rotate(-34.00284957885742 135.27606201171878,84.15167999267575) "
        >
            <path
                d="M132.79319809265138,89.99938246841431 C128.64319809265135,89.99938246841431 124.59719809265135,91.2988824684143 121.22299809265138,93.7156824684143 C117.84879809265135,96.1323824684143 115.31569809265136,99.54508246841431 113.97889809265138,103.47488246841431 C113.36429809265138,105.28448246841431 110.79419809265136,105.30038246841431 110.13629809265137,103.50578246841431 C106.80669809265137,94.4138824684143 104.98679809265138,78.16248246841431 128.64829809265137,77.17798246841431 C139.61199809265136,76.7220824684143 139.1846980926514,89.99938246841431 132.79319809265138,89.99938246841431 z"
                fill="#79132D"
                id="svg_1"
                class=""
            />
            <path
                d="M137.75949809265137,89.99938246841431 C141.90949809265135,89.9994824684143 145.95529809265136,91.29908246841431 149.3293980926514,93.7157824684143 C152.7034980926514,96.13248246841431 155.23669809265135,99.54518246841431 156.57299809265135,103.47488246841431 C157.18799809265136,105.28448246841431 159.75799809265135,105.30038246841431 160.41599809265136,103.50578246841431 C163.74499809265137,94.4138824684143 165.56599809265137,78.16248246841431 141.90379809265136,77.17798246841431 C130.94069809265136,76.7220824684143 131.36829809265137,89.99938246841431 137.75949809265137,89.99938246841431 z"
                fill="#79132D"
                id="svg_2"
                class=""
            />
            <path
                d="M146.84219809265136,162.4851824684143 L122.64969809265136,159.37418246841432 L128.02089809265135,47.06818246841431 H141.36069809265138 L146.84219809265136,162.4851824684143 z"
                fill="#F0F3F6"
                id="svg_3"
                class=""
            />
            <path
                d="M145.48039809265137,93.9521824684143 H123.50709809265135 V101.2161824684143 H145.48039809265137 V93.9521824684143 z"
                fill="#6B7481"
                id="svg_5"
                class=""
            />
            <path
                d="M152.76329809265138,58.04208246841431 C152.76329809265138,70.4234824684143 149.31859809265137,87.64928246841431 146.82389809265135,96.60078246841431 H122.50269809265137 C120.00789809265137,87.64928246841431 116.56319809265136,70.4234824684143 116.56319809265136,58.04208246841431 C116.56319809265136,29.199582468414306 134.66439809265137,5.818182468414307 134.66439809265137,5.818182468414307 C134.66439809265137,5.818182468414307 152.76329809265138,29.199582468414306 152.76329809265138,58.04208246841431 z"
                fill="#032239"
                id="svg_6"
                class=""
            />
            <path
                d="M134.66319809265138,59.48608246841431 C140.28589809265137,59.48608246841431 144.84399809265136,54.9267824684143 144.84399809265136,49.302682468414304 C144.84399809265136,43.678582468414305 140.28589809265137,39.11938246841431 134.66319809265138,39.11938246841431 C129.04049809265138,39.11938246841431 124.48239809265135,43.678582468414305 124.48239809265135,49.302682468414304 C124.48239809265135,54.9267824684143 129.04049809265138,59.48608246841431 134.66319809265138,59.48608246841431 z"
                fill="white"
                id="svg_7"
                class=""
            />
            <path
                d="M134.66309809265135,56.820682468414304 C138.81409809265136,56.820682468414304 142.17919809265135,53.45478246841431 142.17919809265135,49.302682468414304 C142.17919809265135,45.15068246841431 138.81409809265136,41.78468246841431 134.66309809265135,41.78468246841431 C130.51199809265137,41.78468246841431 127.14699809265136,45.15068246841431 127.14699809265136,49.302682468414304 C127.14699809265136,53.45478246841431 130.51199809265137,56.820682468414304 134.66309809265135,56.820682468414304 z"
                fill="#E08C22"
                id="svg_8"
                class=""
            />
            <path
                d="M147.05019809265139,28.877682468414307 H122.27609809265135 C127.58169809265138,14.966682468414305 134.6640980926514,5.818182468414307 134.6640980926514,5.818182468414307 C134.6640980926514,5.818182468414307 141.74659809265137,14.966682468414305 147.05019809265139,28.877682468414307 z"
                fill="#79132D"
                id="svg_9"
                class=""
            />
        </g>
        <g class="" transform="rotate(-36.172847747802734 193.42433166503898,186.8718109130859) ">
            <path
                d="M258.80345450210575,170.5409080505371 C258.12645450210573,170.5419080505371 257.4504545021057,170.6259080505371 256.7824545021057,170.7909080505371 C255.7644545021057,165.3569080505371 253.9434545021057,160.3209080505371 251.4474545021057,156.04490805053712 C248.95245450210572,151.7679080505371 245.84545450210572,148.3559080505371 242.34945450210571,146.0529080505371 C238.85245450210573,143.7499080505371 235.0534545021057,142.6129080505371 231.2234545021057,142.72290805053711 C227.39345450210573,142.83290805053713 223.6274545021057,144.18890805053712 220.1944545021057,146.6909080505371 C219.2404545021057,142.4599080505371 217.44845450210573,138.7449080505371 215.0484545021057,136.02290805053713 C212.6487545021057,133.3009080505371 209.7509545021057,131.69590805053713 206.72705450210572,131.41490805053712 C203.70305450210572,131.1329080505371 200.6909545021057,132.1879080505371 198.07725450210572,134.4429080505371 C195.46345450210572,136.6979080505371 193.36745450210572,140.0509080505371 192.0581545021057,144.07090805053713 C191.36265450210573,139.8219080505371 189.7148545021057,136.0419080505371 187.3804545021057,133.3389080505371 C185.04605450210573,130.63590805053713 182.1610545021057,129.1689080505371 179.19055450210573,129.1739080505371 C178.86625450210573,129.1739080505371 178.5462545021057,129.1899080505371 178.22835450210573,129.22490805053712 C175.48835450210572,129.5199080505371 172.87855450210571,131.0619080505371 170.76045450210572,133.63590805053713 C168.64235450210572,136.2109080505371 167.12095450210572,139.6909080505371 166.4067545021057,143.5939080505371 C163.61505450210572,142.0899080505371 160.6265545021057,141.5439080505371 157.66965450210571,141.99890805053712 C154.71265450210572,142.4529080505371 151.8653545021057,143.89590805053712 149.34525450210572,146.2169080505371 C146.82505450210573,148.5379080505371 144.69875450210571,151.6749080505371 143.1284545021057,155.38990805053712 C141.5582545021057,159.10390805053711 140.58575450210571,163.2979080505371 140.2850545021057,167.6499080505371 C138.20905450210572,167.88390805053712 136.2129545021057,168.9279080505371 134.50195450210572,170.6739080505371 C132.7908545021057,172.4189080505371 131.4264545021057,174.8039080505371 130.54905450210572,177.58190805053712 C129.1002545021057,176.6369080505371 127.53635450210571,176.13490805053712 125.95175450210571,176.10390805053711 C124.36721450210571,176.0739080505371 122.79493450210572,176.5169080505371 121.32988450210571,177.4049080505371 C119.86484450210571,178.2939080505371 118.53745450210572,179.61090805053712 117.42790450210572,181.2749080505371 C116.31834450210572,182.9399080505371 115.44965750210571,184.9179080505371 114.87431150210571,187.0909080505371 H270.8744545021057 C270.65945450210575,182.5969080505371 269.29445450210574,178.38990805053712 267.0544545021057,175.31890805053712 C264.81345450210574,172.24690805053712 261.8654545021057,170.53990805053712 258.80345450210575,170.5409080505371 z"
                fill="#F0F3F6"
                id="svg_4"
                class=""
            />
            <path
                d="M259.89436255264286,227.99545414447783 C259.21736255264284,227.99645414447784 258.5413625526428,228.08045414447784 257.8733625526428,228.24545414447783 C256.8553625526428,222.81145414447784 255.03436255264282,217.77545414447783 252.5383625526428,213.49945414447785 C250.04336255264283,209.22245414447784 246.93636255264283,205.81045414447783 243.44036255264282,203.50745414447783 C239.94336255264284,201.20445414447784 236.1443625526428,200.06745414447784 232.31436255264282,200.17745414447785 C228.48436255264284,200.28745414447786 224.71836255264282,201.64345414447786 221.28536255264282,204.14545414447784 C220.33136255264282,199.91445414447784 218.53936255264284,196.19945414447784 216.1393625526428,193.47745414447786 C213.7396625526428,190.75545414447782 210.84186255264282,189.15045414447786 207.81796255264283,188.86945414447786 C204.79396255264282,188.58745414447785 201.78186255264282,189.64245414447782 199.16816255264283,191.89745414447785 C196.55436255264283,194.15245414447784 194.45836255264282,197.50545414447782 193.14906255264282,201.52545414447786 C192.45356255264284,197.27645414447784 190.80576255264282,193.49645414447784 188.4713625526428,190.79345414447783 C186.13696255264284,188.09045414447786 183.25196255264282,186.62345414447785 180.28146255264284,186.62845414447784 C179.95716255264284,186.62845414447784 179.63716255264282,186.64445414447783 179.31926255264284,186.67945414447786 C176.57926255264283,186.97445414447785 173.96946255264282,188.51645414447785 171.85136255264283,191.09045414447786 C169.73326255264283,193.66545414447785 168.21186255264283,197.14545414447784 167.49766255264282,201.04845414447783 C164.70596255264283,199.54445414447784 161.71746255264281,198.99845414447785 158.76056255264282,199.45345414447786 C155.80356255264283,199.90745414447784 152.9562625526428,201.35045414447785 150.43616255264283,203.67145414447785 C147.91596255264284,205.99245414447785 145.78966255264282,209.12945414447785 144.21936255264282,212.84445414447785 C142.64916255264282,216.55845414447785 141.67666255264282,220.75245414447784 141.37596255264282,225.10445414447784 C139.29996255264282,225.33845414447785 137.30386255264284,226.38245414447783 135.59286255264283,228.12845414447784 C133.88176255264284,229.87345414447785 132.51736255264282,232.25845414447784 131.63996255264283,235.03645414447786 C130.19116255264282,234.09145414447784 128.62726255264283,233.58945414447786 127.04266255264282,233.55845414447785 C125.45812255264282,233.52845414447785 123.88584255264283,233.97145414447783 122.42079255264282,234.85945414447784 C120.95575255264282,235.74845414447785 119.62836255264283,237.06545414447785 118.51881255264283,238.72945414447784 C117.40925255264283,240.39445414447783 116.54056555264282,242.37245414447784 115.96521955264282,244.54545414447784 H271.96536255264283 C271.75036255264286,240.05145414447784 270.38536255264285,235.84445414447785 268.14536255264284,232.77345414447785 C265.90436255264285,229.70145414447785 262.9563625526428,227.99445414447786 259.89436255264286,227.99545414447783 z"
                fill="#F0F3F6"
                class=""
                id="svg_10"
                transform="rotate(-179.98219299316406 193.9652862548828,215.5869598388672) "
            />
        </g>
    </g>
</svg>
